<svg width="3375" height="811" viewBox="0 0 3375 811" fill="none" xmlns="http://www.w3.org/2000/svg">
<path d="M0 0H3375V811H0V0Z" fill="white"/>
<path d="M3375 0V811H0V0H3375ZM10 801H3365V10H10V801Z" fill="black"/>
<path d="M1708.59 758.091V754.089H1716.39C1717.91 754.089 1719.24 753.836 1720.39 753.33C1721.54 752.824 1722.44 752.111 1723.08 751.191C1723.73 750.225 1724.05 749.075 1724.05 747.741C1724.05 745.717 1723.34 744.153 1721.91 743.049C1720.48 741.945 1718.64 741.393 1716.39 741.393H1710.52V776.307H1717.29C1719.13 776.307 1720.76 776.008 1722.19 775.41C1723.61 774.812 1724.74 773.915 1725.57 772.719C1726.39 771.523 1726.81 770.028 1726.81 768.234C1726.81 766.946 1726.55 765.819 1726.05 764.853C1725.59 763.841 1724.92 763.013 1724.05 762.369C1723.22 761.679 1722.23 761.196 1721.08 760.92C1719.93 760.598 1718.67 760.437 1717.29 760.437H1708.59V755.952H1717.77C1720.12 755.952 1722.32 756.205 1724.39 756.711C1726.46 757.217 1728.3 757.999 1729.91 759.057C1731.57 760.115 1732.86 761.472 1733.78 763.128C1734.7 764.784 1735.16 766.762 1735.16 769.062C1735.16 772.236 1734.4 774.858 1732.88 776.928C1731.41 778.998 1729.36 780.539 1726.74 781.551C1724.16 782.517 1721.17 783 1717.77 783H1702.38V734.7H1716.94C1719.98 734.7 1722.64 735.137 1724.94 736.011C1727.29 736.885 1729.11 738.219 1730.4 740.013C1731.73 741.807 1732.4 744.084 1732.4 746.844C1732.4 749.236 1731.73 751.283 1730.4 752.985C1729.11 754.641 1727.29 755.906 1724.94 756.78C1722.64 757.654 1719.98 758.091 1716.94 758.091H1708.59Z" fill="black"/>
<path d="M1761.42 751.26H1769.77L1758.38 766.647L1770.46 783H1762.11L1754.45 772.098L1746.93 783H1738.37L1750.52 766.647L1739.06 751.26H1747.62L1754.45 761.196L1761.42 751.26Z" fill="black"/>
<path d="M1771.78 767.13C1771.78 763.864 1772.52 760.989 1773.99 758.505C1775.51 756.021 1777.56 754.089 1780.13 752.709C1782.71 751.283 1785.63 750.57 1788.89 750.57C1792.16 750.57 1795.06 751.283 1797.59 752.709C1800.16 754.089 1802.21 756.021 1803.73 758.505C1805.25 760.989 1806.01 763.864 1806.01 767.13C1806.01 770.35 1805.25 773.225 1803.73 775.755C1802.21 778.239 1800.16 780.194 1797.59 781.62C1795.06 783 1792.16 783.69 1788.89 783.69C1785.63 783.69 1782.71 783 1780.13 781.62C1777.56 780.194 1775.51 778.239 1773.99 775.755C1772.52 773.225 1771.78 770.35 1771.78 767.13ZM1779.44 767.13C1779.44 769.108 1779.86 770.856 1780.68 772.374C1781.51 773.846 1782.64 775.019 1784.06 775.893C1785.49 776.721 1787.1 777.135 1788.89 777.135C1790.64 777.135 1792.23 776.721 1793.66 775.893C1795.13 775.019 1796.28 773.846 1797.11 772.374C1797.93 770.856 1798.35 769.108 1798.35 767.13C1798.35 765.152 1797.93 763.404 1797.11 761.886C1796.28 760.368 1795.13 759.195 1793.66 758.367C1792.23 757.539 1790.64 757.125 1788.89 757.125C1787.1 757.125 1785.49 757.539 1784.06 758.367C1782.64 759.195 1781.51 760.368 1780.68 761.886C1779.86 763.404 1779.44 765.152 1779.44 767.13Z" fill="black"/>
<path d="M1827.99 761.955L1819.37 780.93L1811.64 780.102L1827.99 748.845L1844.35 780.102L1836.62 780.93L1827.99 761.955ZM1841.1 783H1815.23V789.21H1807.64V776.652H1848.35V789.21H1841.1V783Z" fill="black"/>
<path d="M1721 789H1829V811H1721V789Z" fill="white"/>
<path d="M10 10L128 9.99993V140H10L10 10Z" fill="#B5B5B5"/>
<path d="M184 9.99993H231V176H184V9.99993Z" fill="#B5B5B5"/>
<path d="M323 9.99993H370V176H323V9.99993Z" fill="#B5B5B5"/>
<path d="M455 55.9999H502V222H455V55.9999Z" fill="#B5B5B5"/>
<path d="M625 139H672V685H625V139Z" fill="#B5B5B5"/>
<path d="M1058 526H1103V801H1058V526Z" fill="#B5B5B5"/>
<path d="M1103 526H1193V567H1103V526Z" fill="#B5B5B5"/>
<path d="M1248 526V617H1202V526H1248Z" fill="#B5B5B5"/>
<path d="M1248 650V741H1202V650H1248Z" fill="#B5B5B5"/>
<path d="M1665 801H1459V729H1665V801Z" fill="#B5B5B5"/>
<path d="M509 399H556V685H509V399Z" fill="#B5B5B5"/>
<path d="M3317 524H3365V801L3317 801V524Z" fill="#B5B5B5"/>
<path d="M393 399H440V685H393V399Z" fill="#B5B5B5"/>
<path d="M3185 524H3232V801H3185V524Z" fill="#B5B5B5"/>
<path d="M277 399H324V685H277V399Z" fill="#B5B5B5"/>
<path d="M3053 524H3100V801H3053V524Z" fill="#B5B5B5"/>
<path d="M2951 758V801H2647V758H2951Z" fill="#B5B5B5"/>
<path d="M2951 585V628H2506V585H2951Z" fill="#B5B5B5"/>
<path d="M2951 407V453H2647V407H2951Z" fill="#B5B5B5"/>
<path d="M2524 293H2505V115H2524V293Z" fill="#B5B5B5"/>
<path d="M161 399H208V685H161V399Z" fill="#B5B5B5"/>
<path d="M45 399H92V685H45V399Z" fill="#B5B5B5"/>
<path d="M556 356V403L10 403L10 356L556 356Z" fill="#B5B5B5"/>
<path d="M793 9.99993V61.9999L692 61.9999V9.99993L793 9.99993Z" fill="#B5B5B5"/>
<path d="M986 9.99993V61.9999L885 61.9999V9.99993L986 9.99993Z" fill="#B5B5B5"/>
<path d="M1605 409V462H1459V409H1605Z" fill="#B5B5B5"/>
<path d="M2076 776V801H1989V776H2076Z" fill="#B5B5B5"/>
<path d="M2210 526V801H2165V526H2210Z" fill="#B5B5B5"/>
<path d="M2370 661V801H2405V661H2370Z" fill="#B5B5B5"/>
<path d="M2300 526V567H2210V526H2300Z" fill="#B5B5B5"/>
<path d="M2305 661V685H2370V661H2305Z" fill="#B5B5B5"/>
<path d="M846 139V399H818V139H846Z" fill="#B5B5B5"/>
<path d="M1053 139V399H1025V139H1053Z" fill="#B5B5B5"/>
<path d="M2497 9.99993V400L1204 400V9.99988L2497 9.99993Z" fill="#B5B5B5"/>
<path fill-rule="evenodd" clip-rule="evenodd" d="M3365 334.412V399H3292.79C3286.04 390.668 3282 380.056 3282 368.5C3282 341.714 3303.71 320 3330.5 320C3344 320 3356.21 325.514 3365 334.412Z" fill="#D9D9D9"/>
<path fill-rule="evenodd" clip-rule="evenodd" d="M3365 399V334.412C3356.21 325.514 3344 320 3330.5 320C3303.71 320 3282 341.714 3282 368.5C3282 380.056 3286.04 390.668 3292.79 399H3365Z" fill="#B5B5B5"/>
<path d="M1942.5 573.5V807H1932.5V573.5H1942.5ZM2309 512.5V807H2299V512.5H2309ZM1202.5 512.5V804H1192.5V512.5H1202.5ZM2505.5 6.5V399H2532V409H2309V428.5H2299V409H1942.5V492.5H1932.5V409H1204.5V429H1194.5V409H805.5V399H1194.5V10H1204.5V399H2495.5V6.5H2505.5ZM680 399V409H7V399H680ZM3154.5 6.5V399H3170V409H2619.5V399H3144.5V6.5H3154.5ZM3369 399V409H3255V399H3369Z" fill="black"/>
</svg>
